<svg xmlns="http://www.w3.org/2000/svg" viewBox="0 0 388.33 387.4"><defs><style>.cls-1{fill:#af714f;}</style></defs><g id="Layer_2" data-name="Layer 2"><g id="Layer_1-2" data-name="Layer 1"><path d="M49.64,65l8.1-10.21L87.15,78.14l-6.06,7.64L61.6,70.32,72.11,91.64l-5.29,6.67L43.79,93l19.36,15.36-6,7.64L27.69,92.71l8-10.13,25.36,5.89Z"/><path d="M103.12,67.37l-8.6-12.72-26.7-8.73,9.86-6.66,16.68,6.79,0-18.1,9.81-6.64L102.6,49.19l8.59,12.72Z"/><path d="M144.13,45.31l-8-36.67,19.52-4.27c8.52-1.87,15.85-1.37,17.93,8.15,2.18,9.94-4.71,13.49-12.81,15.26L150.7,30l2.9,13.26Zm5-22.33,9.68-2.12c2.74-.6,6.13-1.72,5.16-6.14s-4.55-3.91-7.23-3.33l-9.68,2.12Z"/><path d="M219.75,39l-11.14-.44-7.33-13.86L193,24.33l-.52,13.56-9.69-.38L184.24,0l20,.78c8.72.33,15.69,2.65,15.32,12.39-.27,6.79-3.73,9.78-8.41,10.94ZM193.65,7.48l-.38,9.69,9.91.38c2.79.11,6.36-.13,6.54-4.65s-3.42-4.93-6.17-5Z"/><path d="M227.55,21.05C231.28,9.75,241.65,5,255,9.33S273.76,23.64,270,35.05,255.92,51.1,242.62,46.72,223.83,32.36,227.55,21.05ZM260.64,32c2.25-6.8-.43-12.45-8.2-15s-13.39.35-15.63,7.16.55,12.43,8.33,15S258.42,38.71,260.64,32Z"/><path d="M272,44.13,281,48c-2.15,3.81-1.55,6.8,2.45,9.45,4.48,3,7.62,1.38,9.82-1.94l8.44-12.7-11.93-7.93,4.44-6.68,20.1,13.35L300.66,62c-4.71,7.09-12.82,8.11-21.75,2.17C270.44,58.58,268.09,51.2,272,44.13Z"/><path d="M297.46,76.27l27.4-25.66,21.21,22.64-5.19,4.86L326.34,62.58,320.56,68l13.55,14.47-5.27,4.93L315.29,72.93l-6,5.59,14.54,15.53-5.19,4.86Z"/><path d="M337.73,92.27c10.58-5.68,21.42-1.78,28.12,10.7,4.9,9.11,4.77,17.19.07,23.69l-7-6.69c2.88-3.86,2.87-8.2.12-13.33-4-7.45-10.08-9.32-16.58-5.83S334.05,110.58,338,118c2.65,4.93,6.22,7.48,11.34,7.11l1.82,9.54c-8.22.63-15.1-3.87-20-13C324.46,109.12,327.24,97.91,337.73,92.27Z"/><path d="M345,154.47,373.76,148,370.7,134.4l7.82-1.77,8.31,36.72L379,171.12l-3.07-13.55-28.79,6.51Z"/><path d="M361.18,178.13l1.72,9.63c-4.4,1.9-6.5,6.27-6.62,11.81-.11,4.53,1,7.14,3.87,7.2,2.43.06,3.39-2.08,4.69-9.32,1.48-8.32,3.27-16.2,12.27-16,7.37.17,11.43,6.45,11.21,16.31-.17,7.43-2.23,12.72-6.91,17.4l-5.14-6.52A17.3,17.3,0,0,0,381,196.9c.08-3.72-.95-5.62-3.16-5.67-2,0-2.9,1.92-4.29,8.9-1.34,6.7-3.35,16.62-12.61,16.41-7.27-.16-12.26-5.61-12-17.19C349.21,185.57,354.23,180.62,361.18,178.13Z"/><path class="cls-1" d="M354.41,236.62l13.85,4.56L362.75,258l-13.86-4.56Z"/><path d="M340.77,320.22l-7.93,10.34L303.06,307.7,309,300l19.74,15.15L317.88,294l5.18-6.75,23.12,4.91-19.61-15.05,5.93-7.73,29.78,22.85-7.87,10.26L329,297Z"/><path d="M287.25,318.74l8.8,12.58,26.84,8.3-9.76,6.82-16.78-6.52.24,18.1-9.71,6.79,1.18-27.9-8.8-12.58Z"/><path d="M246.62,341.46,255.23,378l-19.44,4.58c-8.49,2-15.83,1.63-18.07-7.85-2.33-9.91,4.5-13.57,12.57-15.47l10-2.36-3.12-13.21Zm-4.68,22.4-9.64,2.27c-2.73.65-6.1,1.83-5.06,6.23s4.61,3.84,7.28,3.21l9.65-2.28Z"/><path d="M171.16,349l11.14.25L189.86,363l8.29.19.31-13.57,9.69.22-.85,37.53-20-.45c-8.72-.2-15.73-2.41-15.51-12.15C172,368,175.38,365,180,363.72Zm26.61,31,.22-9.69-9.91-.22c-2.8-.07-6.36.23-6.46,4.75s3.49,4.88,6.24,4.94Z"/><path d="M163.6,367.05c-3.54,11.36-13.83,16.33-27.2,12.17-13.53-4.22-19.05-14-15.48-25.47s13.82-16.29,27.19-12.12S167.14,355.68,163.6,367.05Zm-33.27-10.37c-2.13,6.84.64,12.44,8.45,14.88s13.38-.57,15.51-7.41-.75-12.42-8.57-14.86S132.45,349.89,130.33,356.68Z"/><path d="M118.84,344.7,109.76,341c2.09-3.85,1.44-6.82-2.6-9.41-4.53-2.91-7.64-1.26-9.79,2.1l-8.23,12.83,12.06,7.73L96.86,361,76.55,348l13.29-20.72c4.6-7.16,12.69-8.31,21.71-2.52C120.12,330.23,122.58,337.57,118.84,344.7Z"/><path d="M92.8,313l-27,26.1-21.57-22.3,5.11-4.94,14.79,15.29,5.69-5.51L56.06,307.37l5.19-5L75,316.6l5.89-5.7-14.8-15.29,5.11-4.94Z"/><path d="M52.28,297.6c-10.49,5.85-21.39,2.12-28.29-10.25-5-9-5-17.11-.44-23.68l7.12,6.57c-2.81,3.91-2.73,8.25.1,13.33,4.12,7.39,10.22,9.16,16.67,5.57s8.23-9.9,4.14-17.24c-2.73-4.89-6.33-7.38-11.45-6.93l-2-9.51c8.21-.75,15.16,3.63,20.2,12.67C65.28,280.55,62.68,291.8,52.28,297.6Z"/><path d="M44.05,235.57l-28.67,7,3.28,13.5L10.87,258,2,221.38l7.8-1.9L13,233l28.68-7Z"/><path d="M27.27,212.13l-1.79-9.61c4.4-1.93,6.46-6.31,6.55-11.86.08-4.52-1.07-7.12-3.92-7.17-2.42,0-3.38,2.1-4.62,9.35-1.43,8.33-3.17,16.22-12.17,16.07C4,208.79-.15,202.53,0,192.68c.12-7.43,2.15-12.73,6.8-17.45L12,181.72A17.27,17.27,0,0,0,7.37,193.5c-.06,3.71,1,5.62,3.2,5.65,2,0,2.88-2,4.23-8.93,1.3-6.71,3.23-16.64,12.5-16.49,7.27.12,12.3,5.53,12.11,17.11C39.19,204.62,34.2,209.6,27.27,212.13Z"/><path class="cls-1" d="M32.42,148.64l-15.18-4.72L23,125.54l15.18,4.72Z"/></g></g></svg>